<svg xmlns="http://www.w3.org/2000/svg" width="15.078" height="17.232" viewBox="0 0 15.078 17.232">
  <path id="discord_icon" d="M10,8.185a.882.882,0,1,1-.879-.956A.918.918,0,0,1,10,8.185ZM5.98,7.229a.96.96,0,0,0,0,1.913.918.918,0,0,0,.879-.956A.912.912,0,0,0,5.98,7.229Zm9.1-5.454V17.232c-2.171-1.918-1.476-1.283-4-3.627l.457,1.594H1.766A1.771,1.771,0,0,1,0,13.424V1.775A1.771,1.771,0,0,1,1.766,0H13.312A1.771,1.771,0,0,1,15.078,1.775ZM12.623,9.943A11.538,11.538,0,0,0,11.382,4.92a4.261,4.261,0,0,0-2.421-.9l-.121.138a5.734,5.734,0,0,1,2.145,1.094A7.321,7.321,0,0,0,4.549,5c-.319.146-.508.25-.508.25A5.813,5.813,0,0,1,6.307,4.118l-.086-.1a4.261,4.261,0,0,0-2.421.9A11.538,11.538,0,0,0,2.559,9.943a3.124,3.124,0,0,0,2.628,1.31s.319-.388.577-.715A2.68,2.68,0,0,1,4.256,9.521c.127.089.336.2.353.215a6.281,6.281,0,0,0,5.376.3,4.93,4.93,0,0,0,.991-.508,2.719,2.719,0,0,1-1.56,1.025c.258.327.569.7.569.7A3.15,3.15,0,0,0,12.623,9.943Z" fill="#b9b7bf"/>
</svg>
