<svg xmlns="http://www.w3.org/2000/svg" width="17.096" height="16.669" viewBox="0 0 17.096 16.669">
  <path id="github_icon" d="M5.718,13.984c0,.069-.079.124-.179.124s-.193-.045-.193-.124.079-.124.179-.124S5.718,13.9,5.718,13.984Zm-1.072-.155c-.024.069.045.148.148.169a.162.162,0,0,0,.214-.069c.021-.069-.045-.148-.148-.179A.177.177,0,0,0,4.646,13.829ZM6.17,13.77c-.1.024-.169.09-.159.169s.1.114.2.09.169-.09.159-.159S6.27,13.76,6.17,13.77ZM8.438.563A8.265,8.265,0,0,0,0,8.973a8.641,8.641,0,0,0,5.842,8.245c.441.079.6-.193.6-.417s-.01-1.392-.01-2.116c0,0-2.413.517-2.919-1.027,0,0-.393-1-.958-1.261,0,0-.789-.541.055-.531a1.819,1.819,0,0,1,1.33.889,1.822,1.822,0,0,0,2.513.72A1.916,1.916,0,0,1,7,12.312C5.074,12.1,3.13,11.819,3.13,8.5a2.612,2.612,0,0,1,.813-2.03,3.257,3.257,0,0,1,.09-2.34c.72-.224,2.378.931,2.378.931a8.143,8.143,0,0,1,4.329,0s1.658-1.158,2.378-.931a3.255,3.255,0,0,1,.09,2.34A2.679,2.679,0,0,1,14.1,8.5c0,3.326-2.03,3.591-3.957,3.809a2.038,2.038,0,0,1,.586,1.6c0,1.162-.01,2.6-.01,2.881,0,.224.159.5.6.417A8.562,8.562,0,0,0,17.1,8.973,8.451,8.451,0,0,0,8.438.563ZM3.35,12.45c-.045.034-.034.114.024.179s.134.079.179.034.034-.114-.024-.179S3.4,12.405,3.35,12.45Zm-.372-.279c-.024.045.01.1.079.134a.1.1,0,0,0,.148-.024c.024-.045-.01-.1-.079-.134S3,12.137,2.978,12.171ZM4.095,13.4c-.055.045-.034.148.045.214s.179.09.224.034.024-.148-.045-.214S4.14,13.343,4.095,13.4ZM3.7,12.891c-.055.034-.055.124,0,.2s.148.114.193.079a.157.157,0,0,0,0-.214C3.847,12.881,3.757,12.847,3.7,12.891Z" transform="translate(0 -0.563)" fill="#b9b7bf"/>
</svg>
